<?xml version="1.0" encoding="UTF-8"?>
<svg width="100" height="100" version="1.1" viewBox="0 0 752 752" xmlns="http://www.w3.org/2000/svg">
  <g>
    <path fill="currentColor" d="m568.35 373.38c-0.42578-0.47266-1.0391-0.75-1.6719-0.75h-381.36c-0.63281 0-1.2461 0.27344-1.6719 0.75-0.42188 0.47656-0.625 1.1094-0.55859 1.7422l20.953 188.52c0.9375 8.4766 8.6445 15.371 17.172 15.371h309.57c8.5273 0 16.234-6.8984 17.172-15.371l20.953-188.52c0.0625-0.62891-0.14062-1.2656-0.56641-1.7422zm-69.746 47.113-7.4766 112.17c-0.38672 5.8711-5.3008 10.465-11.176 10.465-0.24219 0-0.49609-0.003906-0.76172-0.023437-2.9883-0.19922-5.7227-1.5547-7.6953-3.8047-1.9766-2.2578-2.9453-5.1445-2.75-8.1367l7.4766-112.16c0.39453-5.8711 5.2695-10.477 11.109-10.477 0.26953 0 0.54297 0.007812 0.83203 0.03125 2.9883 0.19922 5.7227 1.5469 7.6953 3.8047 1.9766 2.2578 2.9453 5.1406 2.7461 8.1367zm-74.262-0.50391-2.4766 112.17c-0.13281 6.043-5.1602 10.965-11.457 10.965h-0.007812c-2.9922-0.066406-5.7891-1.293-7.8516-3.457-2.0703-2.1641-3.1719-5.0039-3.1055-8l2.4805-112.16c0.13281-6.0508 5.0547-10.977 10.965-10.977l0.49609 0.015625c2.9922 0.066406 5.7891 1.293 7.8516 3.457 2.0742 2.1562 3.1758 5 3.1055 7.9922zm-71.781 111.67c0.070312 2.9961-1.0391 5.8359-3.1055 8-2.0703 2.1641-4.8594 3.3945-8.1133 3.4609-6.043 0-11.074-4.9219-11.203-10.969l-2.4844-112.17c-0.066406-2.9922 1.0391-5.8359 3.1055-8 2.0703-2.1641 4.8594-3.3945 7.8945-3.4609l0.42969-0.007813c5.9297 0 10.859 4.9258 10.992 10.977zm-69.309-0.50391c0.19922 2.9922-0.77734 5.8789-2.75 8.1367-1.9766 2.2539-4.707 3.6055-7.707 3.8086-6.2461 0.42188-11.523-4.3281-11.93-10.445l-7.4766-112.16c-0.19922-2.9883 0.77734-5.8789 2.75-8.1328 1.9766-2.2578 4.707-3.6094 7.7109-3.8086 0.26953-0.019532 0.54297-0.027344 0.80859-0.027344 5.8398 0 10.723 4.6016 11.109 10.477z"/>
    <path fill="currentColor" d="m566.68 307.58h-134.6l-30.957 41.273c-0.97656 1.2969-2.0703 2.4727-3.2188 3.5898h168.77c12.395 0 22.434-10.043 22.434-22.434 0-12.387-10.039-22.43-22.434-22.43z"/>
    <path fill="currentColor" d="m344.91 334.45c-1.1836-8.3047 0.93359-16.57 5.9609-23.285l2.6914-3.5859h-168.24c-12.391 0-22.434 10.047-22.434 22.434 0 12.391 10.043 22.434 22.434 22.434h168.74c-4.9414-4.8125-8.1602-11.059-9.1562-17.996z"/>
    <path fill="currentColor" d="m490.41 177.47c-9.9102-7.4297-23.973-5.4219-31.406 4.4883l-100.95 134.59c-7.4336 9.9102-5.4219 23.977 4.4883 31.402 4.0352 3.0312 8.7578 4.4883 13.441 4.4883 6.8164 0 13.555-3.0977 17.965-8.9727l100.95-134.6c7.4297-9.9062 5.4258-23.973-4.4844-31.402zm-114.41 161.51c-4.957 0-8.9727-4.0156-8.9727-8.9727s4.0156-8.9727 8.9727-8.9727 8.9727 4.0156 8.9727 8.9727c0.003906 4.957-4.0117 8.9727-8.9727 8.9727z"/>
  </g>
</svg>
