<svg xmlns="http://www.w3.org/2000/svg" width="135" height="42" fill="none" viewBox="0 0 135 42"><g clip-path="url(#a)"><path fill="#00B48D" d="M9.315 0H1.31A1.262 1.262 0 0 0 .047 1.25v16.13a1.262 1.262 0 0 0 1.262 1.262h8.054A9.327 9.327 0 1 0 9.363 0m-.048 22.132H1.31a1.262 1.262 0 0 0-1.262 1.262v16.13a1.261 1.261 0 0 0 1.262 1.25h8.053a9.327 9.327 0 1 0 0-18.642m12.77 9.328v8.065a1.262 1.262 0 0 0 1.261 1.25h16.131a1.262 1.262 0 0 0 1.25-1.25V31.46a9.327 9.327 0 1 0-18.642 0Z"/><path fill="#003E53" d="M50.102 17.935V.035h8.254a5.896 5.896 0 0 1 4.009 1.298 4.61 4.61 0 0 1 .884 5.6 4.056 4.056 0 0 1-1.615 1.533v.154c.332.13.645.305.931.518.333.236.634.514.897.826.313.367.554.791.707 1.25.18.523.267 1.074.26 1.627a5 5 0 0 1-.767 2.76 4.928 4.928 0 0 1-2.028 1.78 6.32 6.32 0 0 1-2.771.601l-8.761-.047ZM52.79 7.558h5.295a3.066 3.066 0 0 0 2.134-.73 2.475 2.475 0 0 0 .813-1.923 2.287 2.287 0 0 0-.813-1.827 3.018 3.018 0 0 0-2.087-.708H52.79v5.188Zm0 8.054h5.448a3.644 3.644 0 0 0 2.358-.755 2.76 2.76 0 0 0 .896-2.24 2.725 2.725 0 0 0-.495-1.663A2.784 2.784 0 0 0 59.735 10a4.859 4.859 0 0 0-1.71-.283h-5.258l.023 5.896Zm15.624.766a7.157 7.157 0 0 1-1.804-5.07 7.228 7.228 0 0 1 1.792-5.094 5.895 5.895 0 0 1 4.61-1.98 5.576 5.576 0 0 1 1.687.247c.472.144.918.363 1.32.648.3.215.58.456.837.72.198.202.376.423.531.66h.189V4.575h2.735v13.36h-2.64v-1.899h-.166a5.047 5.047 0 0 1-4.328 2.24 6.166 6.166 0 0 1-4.716-1.945m.955-5.106a4.847 4.847 0 0 0 1.18 3.35 3.892 3.892 0 0 0 3.006 1.26 3.786 3.786 0 0 0 3.007-1.32 4.94 4.94 0 0 0 1.12-3.29 4.717 4.717 0 0 0-1.18-3.36 3.916 3.916 0 0 0-2.982-1.238 3.832 3.832 0 0 0-2.972 1.285 4.811 4.811 0 0 0-1.179 3.313m14.35 6.71V4.575h2.594v2.358h.177a3.82 3.82 0 0 1 3.538-2.358h1.179v2.618h-1.25a3.219 3.219 0 0 0-2.63 1.179 4.598 4.598 0 0 0-.966 3.054v6.509h-2.642Zm9.905 0V4.575h2.582v2.358h.177a3.856 3.856 0 0 1 3.597-2.358h1.179v2.618h-1.25a3.242 3.242 0 0 0-2.641 1.179 4.717 4.717 0 0 0-.955 3.054v6.509h-2.69Zm-43.569 22.84V22.828h2.924l8.525 13.277h.154V22.828h2.688v17.947h-2.971l-8.467-13.29h-.165v13.29h-2.688Zm17.357-17.11a1.627 1.627 0 0 1 .495-1.179 1.746 1.746 0 0 1 1.262-.471 1.791 1.791 0 0 1 1.297.471 1.591 1.591 0 0 1 .507 1.18 1.616 1.616 0 0 1-.507 1.179 1.802 1.802 0 0 1-1.297.483 1.734 1.734 0 0 1-1.262-.483 1.64 1.64 0 0 1-.495-1.18m.412 3.703h2.689v13.407h-2.69V27.368Zm6.191 10.07V22.816h2.712v14.445c-.018.3.08.595.271.825a.93.93 0 0 0 .755.295h.566v2.358h-1.097a3.055 3.055 0 0 1-2.358-.884 3.361 3.361 0 0 1-.837-2.453m6.367-.601h2.512c.177 1.403 1.179 2.099 2.924 2.099a3.372 3.372 0 0 0 2.028-.53 1.721 1.721 0 0 0 .72-1.44 1.38 1.38 0 0 0-.437-1.072 2.252 2.252 0 0 0-1.179-.578l-1.533-.354-1.662-.389a6.987 6.987 0 0 1-1.533-.578 2.794 2.794 0 0 1-1.12-1.179 3.679 3.679 0 0 1-.437-1.875 3.455 3.455 0 0 1 1.403-2.818 5.719 5.719 0 0 1 3.68-1.108 5.448 5.448 0 0 1 3.454 1.073 3.986 3.986 0 0 1 1.545 2.96H88.34a1.969 1.969 0 0 0-.79-1.38 3.077 3.077 0 0 0-1.85-.495 3.041 3.041 0 0 0-1.793.471 1.474 1.474 0 0 0-.66 1.238 1.18 1.18 0 0 0 .341.873c.254.235.569.394.908.46l1.274.26 1.45.294c.5.096.99.238 1.462.425.446.173.87.399 1.262.672.402.305.716.712.908 1.179a4.37 4.37 0 0 1 .342 1.78 3.81 3.81 0 0 1-1.474 3.113 6.12 6.12 0 0 1-3.962 1.18 5.802 5.802 0 0 1-3.868-1.18 4.233 4.233 0 0 1-1.497-3.148m13.077.047h2.524c.177 1.403 1.179 2.099 2.924 2.099a3.37 3.37 0 0 0 2.028-.53 1.718 1.718 0 0 0 .72-1.44 1.42 1.42 0 0 0-.437-1.072 2.25 2.25 0 0 0-1.179-.578l-1.533-.354-1.662-.389a6.766 6.766 0 0 1-1.533-.578 2.794 2.794 0 0 1-1.12-1.179 3.679 3.679 0 0 1-.437-1.875 3.455 3.455 0 0 1 1.403-2.818 5.719 5.719 0 0 1 3.68-1.108 5.457 5.457 0 0 1 3.454 1.073 3.98 3.98 0 0 1 1.545 2.96h-2.476a1.92 1.92 0 0 0-.778-1.38 3.113 3.113 0 0 0-1.863-.495 3.006 3.006 0 0 0-1.781.471 1.462 1.462 0 0 0-.672 1.238 1.177 1.177 0 0 0 .354.873c.251.238.567.398.907.46l1.274.26 1.45.294a7.87 7.87 0 0 1 1.451.425c.45.17.878.396 1.273.672.402.302.712.71.896 1.179.247.56.368 1.168.354 1.78a3.812 3.812 0 0 1-1.474 3.113 6.12 6.12 0 0 1-3.962 1.18 5.802 5.802 0 0 1-3.867-1.18 4.292 4.292 0 0 1-1.51-3.148m12.936-2.689a7.127 7.127 0 0 1 .908-3.608 6.468 6.468 0 0 1 2.547-2.523 7.438 7.438 0 0 1 3.655-.908 7.285 7.285 0 0 1 3.655.92 6.575 6.575 0 0 1 2.524 2.523c.607 1.1.916 2.34.896 3.596a7.077 7.077 0 0 1-.908 3.538 6.55 6.55 0 0 1-2.535 2.535 7.327 7.327 0 0 1-3.656.92 6.909 6.909 0 0 1-5.094-1.993 6.828 6.828 0 0 1-1.992-5.047m2.759 0a4.633 4.633 0 0 0 1.179 3.302 4.076 4.076 0 0 0 3.101 1.297 4.13 4.13 0 0 0 3.125-1.297 4.714 4.714 0 0 0 1.179-3.302 4.714 4.714 0 0 0-1.179-3.301 4.403 4.403 0 0 0-4.808-.96 4.403 4.403 0 0 0-1.43.96 4.718 4.718 0 0 0-1.179 3.301m14.256 6.757V27.368h2.606v1.78h.177a3.69 3.69 0 0 1 1.474-1.509 4.713 4.713 0 0 1 2.464-.613 4.633 4.633 0 0 1 3.537 1.45 5.2 5.2 0 0 1 1.345 3.68v8.619h-2.653v-8.1a3.113 3.113 0 0 0-.861-2.265 2.915 2.915 0 0 0-2.146-.872 3.112 3.112 0 0 0-2.359.978 3.35 3.35 0 0 0-.919 2.43v7.829h-2.665ZM102.361 4.54h2.936l3.726 10.376h.177l3.691-10.376h2.948L109.79 20.4a5.263 5.263 0 0 1-1.639 2.358 4.351 4.351 0 0 1-2.771.813h-1.486v-2.358h1.179a2.357 2.357 0 0 0 2.359-1.663l.389-1.037-5.46-13.973Z"/></g><defs><clipPath id="a"><path fill="#fff" d="M0 0h135v41.117H0z"/></clipPath></defs></svg>