<svg xmlns="http://www.w3.org/2000/svg" xml:space="preserve" style="enable-background:new 0 0 100 100" viewBox="0 0 100 100"><path d="M47 .2h6.2c.2.3.5.2.8.2 2.4.1 4.7.5 7 1 19.4 4.3 34.8 20.2 38.4 39.7.4 2 .6 4.1.9 6.1v6.2c-.5 1.5-.4 3.1-.7 4.7-3.1 20-18.7 36.6-38.5 40.9-2.2.5-4.4.8-6.7 1.2H46c-1.4-.4-2.9-.4-4.3-.7-19.6-3.1-36-18.7-40.3-38.2L.2 54.4V46c.4-1.4.4-2.8.7-4.2 3.4-20.3 19.7-37 40-40.7C43 .7 45 .5 47 .2zm11.4 35.3s.1 0 0 0c.2-2.7.3-5.4.4-8.1.1-2-.8-2.9-2.7-2.9H44.2c-2 0-2.9 1-2.8 3 .1 1.9.2 3.7.3 5.6.3 7 .7 14 1 20.9.1 1.7.9 2.6 2.5 2.6 3.3.1 6.6.1 9.8 0 1.4 0 2.2-.9 2.4-2.3.1-.5.1-1 .1-1.6.4-5.6.6-11.4.9-17.2zM41 69.6c0 5.2 4.1 9.2 9.2 9.2s9.3-4.2 9.3-9.3c0-5-4.3-9.2-9.3-9.2-5.1.1-9.2 4.2-9.2 9.3z"/></svg>