<svg width="17" height="16" viewBox="0 0 17 16" fill="none" xmlns="http://www.w3.org/2000/svg">
<path d="M4.45011 16V5.45584H1.17049V16H4.45011ZM2.79267 4.04525C3.85061 4.04525 4.69696 3.16363 4.69696 2.10569C4.69696 1.08301 3.85061 0.236654 2.79267 0.236654C1.76999 0.236654 0.923634 1.08301 0.923634 2.10569C0.923634 3.16363 1.76999 4.04525 2.79267 4.04525ZM16.687 16H16.7222V10.2166C16.7222 7.3954 16.0875 5.20898 12.7726 5.20898C11.1857 5.20898 10.1277 6.0906 9.66929 6.90169H9.63403V5.45584H6.49547V16H9.77509V10.7808C9.77509 9.40549 10.0219 8.10069 11.7146 8.10069C13.4074 8.10069 13.4426 9.65234 13.4426 10.8866V16H16.687Z"/>
</svg>
