<svg xmlns="http://www.w3.org/2000/svg" viewBox="0 0 100 100"><path d="M.5 51.58c0-2.1.64-3.76 1.92-4.96 1.28-1.2 2.78-1.8 4.51-1.8H93.3c1.65 0 3.08.6 4.28 1.8 1.28 1.2 1.92 2.86 1.92 4.96s-.64 3.76-1.92 4.96c-1.2 1.13-2.63 1.69-4.28 1.69H6.81c-1.65 0-3.12-.56-4.4-1.69-1.28-1.2-1.92-2.86-1.92-4.96ZM49.55 99.5c-2.1 0-3.76-.64-4.96-1.92-1.2-1.28-1.8-2.78-1.8-4.51V6.7c0-1.65.6-3.08 1.8-4.28C45.79 1.14 47.45.5 49.55.5s3.72.64 4.85 1.92c1.2 1.2 1.8 2.63 1.8 4.28v86.48c0 1.65-.6 3.12-1.8 4.4-1.13 1.28-2.74 1.92-4.85 1.92Z"/></svg>