<svg width="19" height="16" viewBox="0 0 19 16" fill="none" xmlns="http://www.w3.org/2000/svg">
<path d="M17.131 4.56163C17.8363 4.03266 18.471 3.3979 18.9647 2.65734C18.33 2.93945 17.5894 3.15104 16.8488 3.22157C17.6247 2.76313 18.1889 2.05783 18.471 1.17622C17.7657 1.59939 16.9546 1.91678 16.1436 2.0931C15.4383 1.35254 14.4861 0.929362 13.4282 0.929362C11.3828 0.929362 9.72537 2.58681 9.72537 4.63216C9.72537 4.91428 9.76063 5.1964 9.83116 5.47852C6.76313 5.30219 4.01248 3.82107 2.17871 1.59939C1.86133 2.12836 1.685 2.76313 1.685 3.46842C1.685 4.73796 2.31977 5.86643 3.34245 6.53646C2.74295 6.50119 2.14345 6.36013 1.64974 6.07802V6.11328C1.64974 7.91178 2.91927 9.3929 4.61198 9.74555C4.32986 9.81608 3.97721 9.88661 3.65983 9.88661C3.41298 9.88661 3.20139 9.85135 2.95454 9.81608C3.41298 11.2972 4.7883 12.3551 6.41048 12.3904C5.14095 13.3778 3.55404 13.9773 1.82606 13.9773C1.50868 13.9773 1.22656 13.9421 0.944445 13.9068C2.56662 14.9647 4.50619 15.5642 6.62207 15.5642C13.4282 15.5642 17.131 9.95714 17.131 5.05534C17.131 4.87901 17.131 4.73796 17.131 4.56163Z"/>
</svg>
